<?xml version="1.0" encoding="utf-8"?>
<!-- Generator: Adobe Illustrator 19.2.1, SVG Export Plug-In . SVG Version: 6.00 Build 0)  -->
<svg version="1.1" xmlns="http://www.w3.org/2000/svg" xmlns:xlink="http://www.w3.org/1999/xlink" x="0px" y="0px" width="200px"
	 height="200px" viewBox="0 0 200 200" style="enable-background:new 0 0 200 200;" xml:space="preserve">
<style type="text/css">
	.st0{display:none;}
	.st1{display:inline;}
</style>
<g id="Layer_1" class="st0">
	<polygon class="st1" points="188.2,84.2 68.3,84.2 112.1,33.8 88.1,13 13.1,99.5 88.1,187.1 112.2,166.5 68.9,116 188.2,116 	"/>
</g>
<g id="Layer_2" class="st0">
	<path class="st1" d="M186.3,18.7H11.4c-5,0-9.1,4.1-9.1,9.1V135c0,5,4.1,9.1,9.1,9.1h13.2l23.1,41.4l23.1-41.4h115.4
		c5,0,9.1-4.1,9.1-9.1V27.7C195.4,22.7,191.3,18.7,186.3,18.7z M115.4,116H33.8v-13.1h81.5V116z M163.9,87.9h-130V74.8h130V87.9z
		 M163.9,59.9h-130V46.8h130V59.9z"/>
</g>
<g id="Layer_3">
	<path d="M116.3,99.2c16.6-6.2,28.4-22.5,28.4-41.6c0-24.5-19.4-44.3-43.3-44.3c-23.9,0-43.3,19.8-43.3,44.3
		c0,19.1,11.8,35.3,28.3,41.6C48,106.7,19,142.7,19.2,185.8l164.4-1.6C183,141.7,154.1,106.7,116.3,99.2z"/>
</g>
</svg>
