<?xml version="1.0" encoding="utf-8"?>
<!-- Generator: Adobe Illustrator 19.2.1, SVG Export Plug-In . SVG Version: 6.00 Build 0)  -->
<svg version="1.1" xmlns="http://www.w3.org/2000/svg" xmlns:xlink="http://www.w3.org/1999/xlink" x="0px" y="0px" width="200px"
	 height="200px" viewBox="0 0 200 200" style="enable-background:new 0 0 200 200;" xml:space="preserve">
<style type="text/css">
	.st0{display:none;}
	.st1{display:inline;}
</style>
<g id="Layer_1" class="st0">
	<polygon class="st1" points="188.2,84.2 68.3,84.2 112.1,33.8 88.1,13 13.1,99.5 88.1,187.1 112.2,166.5 68.9,116 188.2,116 	"/>
</g>
<g id="Layer_2">
	<path d="M186.3,18.7H11.4c-5,0-9.1,4.1-9.1,9.1V135c0,5,4.1,9.1,9.1,9.1h13.2l23.1,41.4l23.1-41.4h115.4c5,0,9.1-4.1,9.1-9.1V27.7
		C195.4,22.7,191.3,18.7,186.3,18.7z M115.4,116H33.8v-13.1h81.5V116z M163.9,87.9h-130V74.8h130V87.9z M163.9,59.9h-130V46.8h130
		V59.9z"/>
</g>
</svg>
