<?xml version="1.0" encoding="utf-8"?>
<!-- Generator: Adobe Illustrator 19.2.1, SVG Export Plug-In . SVG Version: 6.00 Build 0)  -->
<svg version="1.1" id="Layer_1" xmlns="http://www.w3.org/2000/svg" xmlns:xlink="http://www.w3.org/1999/xlink" x="0px" y="0px"
	 width="200px" height="200px" viewBox="0 0 200 200" style="enable-background:new 0 0 200 200;" xml:space="preserve">
<g>
	<path d="M100,189.3c-49.3,0-89.3-40.1-89.3-89.3c0-49.3,40.1-89.3,89.3-89.3c49.3,0,89.3,40.1,89.3,89.3
		C189.3,149.3,149.3,189.3,100,189.3z M100,26.7c-40.4,0-73.3,32.9-73.3,73.3c0,40.4,32.9,73.3,73.3,73.3
		c40.4,0,73.3-32.9,73.3-73.3C173.3,59.6,140.4,26.7,100,26.7z"/>
</g>
<polygon points="135.3,97.9 108,113.7 80.7,129.4 80.7,97.9 80.7,66.4 108,82.2 "/>
</svg>
